<mxfile host="Electron" agent="Mozilla/5.0 (X11; Linux x86_64) AppleWebKit/537.36 (KHTML, like Gecko) draw.io/27.0.5 Chrome/134.0.6998.205 Electron/35.3.0 Safari/537.36" version="27.0.5">
  <diagram name="Page-1" id="OjlYLiDqfQupx79TXul4">
    <mxGraphModel dx="1513" dy="407" grid="1" gridSize="10" guides="1" tooltips="1" connect="1" arrows="1" fold="1" page="1" pageScale="1" pageWidth="850" pageHeight="1100" math="0" shadow="0">
      <root>
        <mxCell id="0" />
        <mxCell id="1" parent="0" />
        <mxCell id="4vMpr_41CA_hvpr1hlCl-1" value="&lt;font style=&quot;font-size: 5px;&quot;&gt;Customer&lt;/font&gt;" style="whiteSpace=wrap;html=1;align=center;" vertex="1" parent="1">
          <mxGeometry x="-14" y="101" width="60" height="20" as="geometry" />
        </mxCell>
        <mxCell id="4vMpr_41CA_hvpr1hlCl-2" value="&lt;font style=&quot;font-size: 5px;&quot;&gt;First Name&lt;/font&gt;" style="ellipse;whiteSpace=wrap;html=1;align=center;" vertex="1" parent="1">
          <mxGeometry x="-64" y="61" width="30" height="20" as="geometry" />
        </mxCell>
        <mxCell id="4vMpr_41CA_hvpr1hlCl-4" value="" style="endArrow=none;html=1;rounded=0;exitX=1;exitY=1;exitDx=0;exitDy=0;entryX=0.5;entryY=0;entryDx=0;entryDy=0;" edge="1" parent="1" source="4vMpr_41CA_hvpr1hlCl-2" target="4vMpr_41CA_hvpr1hlCl-1">
          <mxGeometry relative="1" as="geometry">
            <mxPoint x="156" y="111" as="sourcePoint" />
            <mxPoint x="316" y="111" as="targetPoint" />
          </mxGeometry>
        </mxCell>
        <mxCell id="4vMpr_41CA_hvpr1hlCl-5" value="&lt;font style=&quot;font-size: 5px;&quot;&gt;Last Name&lt;/font&gt;" style="ellipse;whiteSpace=wrap;html=1;align=center;" vertex="1" parent="1">
          <mxGeometry x="-46.5" y="41" width="30" height="20" as="geometry" />
        </mxCell>
        <mxCell id="4vMpr_41CA_hvpr1hlCl-8" value="&lt;font style=&quot;font-size: 5px;&quot;&gt;Address&lt;/font&gt;" style="ellipse;whiteSpace=wrap;html=1;align=center;" vertex="1" parent="1">
          <mxGeometry x="60" y="40" width="30" height="20" as="geometry" />
        </mxCell>
        <mxCell id="4vMpr_41CA_hvpr1hlCl-9" value="" style="endArrow=none;html=1;rounded=0;exitX=0.629;exitY=0.964;exitDx=0;exitDy=0;exitPerimeter=0;" edge="1" parent="1" source="4vMpr_41CA_hvpr1hlCl-5">
          <mxGeometry relative="1" as="geometry">
            <mxPoint x="11" y="81" as="sourcePoint" />
            <mxPoint x="16" y="101" as="targetPoint" />
          </mxGeometry>
        </mxCell>
        <mxCell id="4vMpr_41CA_hvpr1hlCl-11" value="" style="endArrow=none;html=1;rounded=0;exitX=0.389;exitY=1.15;exitDx=0;exitDy=0;exitPerimeter=0;entryX=0.5;entryY=0;entryDx=0;entryDy=0;" edge="1" parent="1" source="4vMpr_41CA_hvpr1hlCl-116" target="4vMpr_41CA_hvpr1hlCl-1">
          <mxGeometry relative="1" as="geometry">
            <mxPoint x="13.11999999999989" y="73.06000000000006" as="sourcePoint" />
            <mxPoint x="26" y="111" as="targetPoint" />
          </mxGeometry>
        </mxCell>
        <mxCell id="4vMpr_41CA_hvpr1hlCl-12" value="" style="endArrow=none;html=1;rounded=0;exitX=0.336;exitY=0.871;exitDx=0;exitDy=0;entryX=0.5;entryY=0;entryDx=0;entryDy=0;exitPerimeter=0;" edge="1" parent="1" source="4vMpr_41CA_hvpr1hlCl-117" target="4vMpr_41CA_hvpr1hlCl-1">
          <mxGeometry relative="1" as="geometry">
            <mxPoint x="30.31021311214863" y="88.01517264515229" as="sourcePoint" />
            <mxPoint x="26" y="111" as="targetPoint" />
          </mxGeometry>
        </mxCell>
        <mxCell id="4vMpr_41CA_hvpr1hlCl-13" value="" style="endArrow=none;html=1;rounded=0;exitX=0;exitY=0.5;exitDx=0;exitDy=0;entryX=1;entryY=0.5;entryDx=0;entryDy=0;" edge="1" parent="1" source="4vMpr_41CA_hvpr1hlCl-8" target="4vMpr_41CA_hvpr1hlCl-1">
          <mxGeometry relative="1" as="geometry">
            <mxPoint x="55.32999999999993" y="52.60000000000002" as="sourcePoint" />
            <mxPoint x="36" y="121" as="targetPoint" />
          </mxGeometry>
        </mxCell>
        <mxCell id="4vMpr_41CA_hvpr1hlCl-14" value="&lt;font style=&quot;font-size: 5px;&quot;&gt;DoB&lt;/font&gt;" style="ellipse;whiteSpace=wrap;html=1;align=center;" vertex="1" parent="1">
          <mxGeometry x="21" y="131" width="25" height="10" as="geometry" />
        </mxCell>
        <mxCell id="4vMpr_41CA_hvpr1hlCl-15" value="" style="endArrow=none;html=1;rounded=0;entryX=0.5;entryY=1;entryDx=0;entryDy=0;" edge="1" parent="1" source="4vMpr_41CA_hvpr1hlCl-14" target="4vMpr_41CA_hvpr1hlCl-1">
          <mxGeometry relative="1" as="geometry">
            <mxPoint x="48" y="73" as="sourcePoint" />
            <mxPoint x="26" y="111" as="targetPoint" />
          </mxGeometry>
        </mxCell>
        <mxCell id="4vMpr_41CA_hvpr1hlCl-17" value="&lt;font style=&quot;font-size: 5px;&quot;&gt;Age&lt;/font&gt;" style="ellipse;whiteSpace=wrap;html=1;align=center;dashed=1;" vertex="1" parent="1">
          <mxGeometry x="-49" y="131" width="35" height="10" as="geometry" />
        </mxCell>
        <mxCell id="4vMpr_41CA_hvpr1hlCl-18" value="" style="endArrow=none;html=1;rounded=0;exitX=0.25;exitY=1;exitDx=0;exitDy=0;entryX=0.473;entryY=-0.152;entryDx=0;entryDy=0;entryPerimeter=0;" edge="1" parent="1" source="4vMpr_41CA_hvpr1hlCl-1" target="4vMpr_41CA_hvpr1hlCl-17">
          <mxGeometry relative="1" as="geometry">
            <mxPoint x="156" y="111" as="sourcePoint" />
            <mxPoint x="316" y="111" as="targetPoint" />
          </mxGeometry>
        </mxCell>
        <mxCell id="4vMpr_41CA_hvpr1hlCl-19" value="&lt;font style=&quot;font-size: 5px;&quot;&gt;Policy&lt;/font&gt;" style="whiteSpace=wrap;html=1;align=center;" vertex="1" parent="1">
          <mxGeometry x="440" y="130" width="60" height="20" as="geometry" />
        </mxCell>
        <mxCell id="4vMpr_41CA_hvpr1hlCl-22" value="" style="endArrow=none;html=1;rounded=0;exitX=0;exitY=0.5;exitDx=0;exitDy=0;entryX=1;entryY=0.5;entryDx=0;entryDy=0;" edge="1" parent="1" source="4vMpr_41CA_hvpr1hlCl-1" target="4vMpr_41CA_hvpr1hlCl-114">
          <mxGeometry relative="1" as="geometry">
            <mxPoint x="90" y="78" as="sourcePoint" />
            <mxPoint x="-18.99999999999784" y="101" as="targetPoint" />
          </mxGeometry>
        </mxCell>
        <mxCell id="4vMpr_41CA_hvpr1hlCl-23" value="&lt;font style=&quot;font-size: 5px;&quot;&gt;House No&lt;/font&gt;" style="ellipse;whiteSpace=wrap;html=1;align=center;" vertex="1" parent="1">
          <mxGeometry x="100" y="10" width="30" height="20" as="geometry" />
        </mxCell>
        <mxCell id="4vMpr_41CA_hvpr1hlCl-24" value="&lt;font style=&quot;font-size: 5px;&quot;&gt;Street&lt;/font&gt;" style="ellipse;whiteSpace=wrap;html=1;align=center;" vertex="1" parent="1">
          <mxGeometry x="110" y="37" width="30" height="20" as="geometry" />
        </mxCell>
        <mxCell id="4vMpr_41CA_hvpr1hlCl-26" value="&lt;font style=&quot;font-size: 5px;&quot;&gt;City&lt;/font&gt;" style="ellipse;whiteSpace=wrap;html=1;align=center;" vertex="1" parent="1">
          <mxGeometry x="110" y="60" width="30" height="20" as="geometry" />
        </mxCell>
        <mxCell id="4vMpr_41CA_hvpr1hlCl-27" value="&lt;font style=&quot;font-size: 5px;&quot;&gt;Zip code&lt;/font&gt;" style="ellipse;whiteSpace=wrap;html=1;align=center;rotation=15;" vertex="1" parent="1">
          <mxGeometry x="90" y="80" width="30" height="20" as="geometry" />
        </mxCell>
        <mxCell id="4vMpr_41CA_hvpr1hlCl-28" value="" style="endArrow=none;html=1;rounded=0;exitX=0.5;exitY=1;exitDx=0;exitDy=0;entryX=0.5;entryY=0;entryDx=0;entryDy=0;" edge="1" parent="1" source="4vMpr_41CA_hvpr1hlCl-23" target="4vMpr_41CA_hvpr1hlCl-8">
          <mxGeometry relative="1" as="geometry">
            <mxPoint x="160" y="90" as="sourcePoint" />
            <mxPoint x="120" y="100" as="targetPoint" />
          </mxGeometry>
        </mxCell>
        <mxCell id="4vMpr_41CA_hvpr1hlCl-29" value="" style="endArrow=none;html=1;rounded=0;exitX=0;exitY=0.5;exitDx=0;exitDy=0;entryX=1;entryY=0;entryDx=0;entryDy=0;" edge="1" parent="1" source="4vMpr_41CA_hvpr1hlCl-24" target="4vMpr_41CA_hvpr1hlCl-8">
          <mxGeometry relative="1" as="geometry">
            <mxPoint x="150" y="70" as="sourcePoint" />
            <mxPoint x="130" y="110" as="targetPoint" />
          </mxGeometry>
        </mxCell>
        <mxCell id="4vMpr_41CA_hvpr1hlCl-30" value="" style="endArrow=none;html=1;rounded=0;exitX=0;exitY=0.5;exitDx=0;exitDy=0;entryX=1;entryY=1;entryDx=0;entryDy=0;" edge="1" parent="1" source="4vMpr_41CA_hvpr1hlCl-26" target="4vMpr_41CA_hvpr1hlCl-8">
          <mxGeometry relative="1" as="geometry">
            <mxPoint x="160" y="100" as="sourcePoint" />
            <mxPoint x="140" y="120" as="targetPoint" />
          </mxGeometry>
        </mxCell>
        <mxCell id="4vMpr_41CA_hvpr1hlCl-31" value="" style="endArrow=none;html=1;rounded=0;entryX=1;entryY=1;entryDx=0;entryDy=0;" edge="1" parent="1" source="4vMpr_41CA_hvpr1hlCl-27" target="4vMpr_41CA_hvpr1hlCl-8">
          <mxGeometry relative="1" as="geometry">
            <mxPoint x="160" y="130" as="sourcePoint" />
            <mxPoint x="120" y="80" as="targetPoint" />
          </mxGeometry>
        </mxCell>
        <mxCell id="4vMpr_41CA_hvpr1hlCl-32" value="&lt;font style=&quot;font-size: 5px;&quot;&gt;policy type&lt;/font&gt;" style="ellipse;whiteSpace=wrap;html=1;align=center;" vertex="1" parent="1">
          <mxGeometry x="485" y="70" width="30" height="20" as="geometry" />
        </mxCell>
        <mxCell id="4vMpr_41CA_hvpr1hlCl-33" value="&lt;font style=&quot;font-size: 5px;&quot;&gt;policy start date&lt;/font&gt;" style="ellipse;whiteSpace=wrap;html=1;align=center;" vertex="1" parent="1">
          <mxGeometry x="550" y="70" width="40" height="20" as="geometry" />
        </mxCell>
        <mxCell id="4vMpr_41CA_hvpr1hlCl-34" value="&lt;font style=&quot;font-size: 5px;&quot;&gt;policy end date&lt;/font&gt;" style="ellipse;whiteSpace=wrap;html=1;align=center;" vertex="1" parent="1">
          <mxGeometry x="520" y="110" width="40" height="20" as="geometry" />
        </mxCell>
        <mxCell id="4vMpr_41CA_hvpr1hlCl-35" value="&lt;font style=&quot;font-size: 5px;&quot;&gt;premium&lt;/font&gt;" style="ellipse;whiteSpace=wrap;html=1;align=center;" vertex="1" parent="1">
          <mxGeometry x="520" y="150" width="40" height="20" as="geometry" />
        </mxCell>
        <mxCell id="4vMpr_41CA_hvpr1hlCl-36" value="&lt;font style=&quot;font-size: 5px;&quot;&gt;status&lt;/font&gt;" style="ellipse;whiteSpace=wrap;html=1;align=center;" vertex="1" parent="1">
          <mxGeometry x="480" y="190" width="40" height="20" as="geometry" />
        </mxCell>
        <mxCell id="4vMpr_41CA_hvpr1hlCl-38" value="&lt;font style=&quot;font-size: 5px;&quot;&gt;Enrolled in&lt;/font&gt;" style="shape=rhombus;perimeter=rhombusPerimeter;whiteSpace=wrap;html=1;align=center;" vertex="1" parent="1">
          <mxGeometry x="240" y="120" width="120" height="20" as="geometry" />
        </mxCell>
        <mxCell id="4vMpr_41CA_hvpr1hlCl-41" value="" style="endArrow=none;html=1;rounded=0;exitX=1;exitY=0.5;exitDx=0;exitDy=0;entryX=0;entryY=0.5;entryDx=0;entryDy=0;" edge="1" parent="1" source="4vMpr_41CA_hvpr1hlCl-38" target="4vMpr_41CA_hvpr1hlCl-19">
          <mxGeometry relative="1" as="geometry">
            <mxPoint x="220" y="120" as="sourcePoint" />
            <mxPoint x="380" y="120" as="targetPoint" />
          </mxGeometry>
        </mxCell>
        <mxCell id="4vMpr_41CA_hvpr1hlCl-42" value="&lt;font style=&quot;font-size: 5px;&quot;&gt;N&lt;/font&gt;" style="resizable=0;html=1;whiteSpace=wrap;align=right;verticalAlign=bottom;" connectable="0" vertex="1" parent="4vMpr_41CA_hvpr1hlCl-41">
          <mxGeometry x="1" relative="1" as="geometry" />
        </mxCell>
        <mxCell id="4vMpr_41CA_hvpr1hlCl-47" value="" style="endArrow=none;html=1;rounded=0;entryX=1;entryY=0.5;entryDx=0;entryDy=0;exitX=0;exitY=0.5;exitDx=0;exitDy=0;" edge="1" parent="1" source="4vMpr_41CA_hvpr1hlCl-38" target="4vMpr_41CA_hvpr1hlCl-1">
          <mxGeometry relative="1" as="geometry">
            <mxPoint x="220" y="120" as="sourcePoint" />
            <mxPoint x="380" y="120" as="targetPoint" />
          </mxGeometry>
        </mxCell>
        <mxCell id="4vMpr_41CA_hvpr1hlCl-48" value="&lt;font style=&quot;font-size: 5px;&quot;&gt;1&lt;/font&gt;" style="resizable=0;html=1;whiteSpace=wrap;align=right;verticalAlign=bottom;" connectable="0" vertex="1" parent="4vMpr_41CA_hvpr1hlCl-47">
          <mxGeometry x="1" relative="1" as="geometry">
            <mxPoint x="15" y="13" as="offset" />
          </mxGeometry>
        </mxCell>
        <mxCell id="4vMpr_41CA_hvpr1hlCl-49" value="" style="endArrow=none;html=1;rounded=0;entryX=0.25;entryY=0;entryDx=0;entryDy=0;exitX=0.5;exitY=1;exitDx=0;exitDy=0;" edge="1" parent="1" source="4vMpr_41CA_hvpr1hlCl-111" target="4vMpr_41CA_hvpr1hlCl-19">
          <mxGeometry relative="1" as="geometry">
            <mxPoint x="415" y="100" as="sourcePoint" />
            <mxPoint x="180" y="90" as="targetPoint" />
          </mxGeometry>
        </mxCell>
        <mxCell id="4vMpr_41CA_hvpr1hlCl-50" value="" style="endArrow=none;html=1;rounded=0;entryX=0.438;entryY=0.034;entryDx=0;entryDy=0;exitX=0.5;exitY=1;exitDx=0;exitDy=0;entryPerimeter=0;" edge="1" parent="1" source="4vMpr_41CA_hvpr1hlCl-32" target="4vMpr_41CA_hvpr1hlCl-19">
          <mxGeometry relative="1" as="geometry">
            <mxPoint x="425" y="110" as="sourcePoint" />
            <mxPoint x="465" y="140" as="targetPoint" />
          </mxGeometry>
        </mxCell>
        <mxCell id="4vMpr_41CA_hvpr1hlCl-51" value="" style="endArrow=none;html=1;rounded=0;entryX=0.5;entryY=0;entryDx=0;entryDy=0;exitX=0;exitY=1;exitDx=0;exitDy=0;" edge="1" parent="1" source="4vMpr_41CA_hvpr1hlCl-33" target="4vMpr_41CA_hvpr1hlCl-19">
          <mxGeometry relative="1" as="geometry">
            <mxPoint x="435" y="120" as="sourcePoint" />
            <mxPoint x="475" y="150" as="targetPoint" />
          </mxGeometry>
        </mxCell>
        <mxCell id="4vMpr_41CA_hvpr1hlCl-52" value="" style="endArrow=none;html=1;rounded=0;exitX=0;exitY=0.5;exitDx=0;exitDy=0;" edge="1" parent="1" source="4vMpr_41CA_hvpr1hlCl-34">
          <mxGeometry relative="1" as="geometry">
            <mxPoint x="445" y="130" as="sourcePoint" />
            <mxPoint x="500" y="140" as="targetPoint" />
          </mxGeometry>
        </mxCell>
        <mxCell id="4vMpr_41CA_hvpr1hlCl-53" value="" style="endArrow=none;html=1;rounded=0;exitX=0;exitY=0.5;exitDx=0;exitDy=0;entryX=1;entryY=1;entryDx=0;entryDy=0;" edge="1" parent="1" source="4vMpr_41CA_hvpr1hlCl-35" target="4vMpr_41CA_hvpr1hlCl-19">
          <mxGeometry relative="1" as="geometry">
            <mxPoint x="530" y="130" as="sourcePoint" />
            <mxPoint x="510" y="150" as="targetPoint" />
          </mxGeometry>
        </mxCell>
        <mxCell id="4vMpr_41CA_hvpr1hlCl-54" value="" style="endArrow=none;html=1;rounded=0;exitX=0.5;exitY=1;exitDx=0;exitDy=0;entryX=0.5;entryY=0;entryDx=0;entryDy=0;" edge="1" parent="1" source="4vMpr_41CA_hvpr1hlCl-19" target="4vMpr_41CA_hvpr1hlCl-36">
          <mxGeometry relative="1" as="geometry">
            <mxPoint x="540" y="140" as="sourcePoint" />
            <mxPoint x="520" y="160" as="targetPoint" />
          </mxGeometry>
        </mxCell>
        <mxCell id="4vMpr_41CA_hvpr1hlCl-55" value="&lt;font style=&quot;font-size: 5px;&quot;&gt;Claims&lt;/font&gt;" style="whiteSpace=wrap;html=1;align=center;" vertex="1" parent="1">
          <mxGeometry x="240" y="360" width="60" height="20" as="geometry" />
        </mxCell>
        <mxCell id="4vMpr_41CA_hvpr1hlCl-57" value="" style="endArrow=none;html=1;rounded=0;exitX=0.051;exitY=-0.024;exitDx=0;exitDy=0;entryX=0.5;entryY=1;entryDx=0;entryDy=0;exitPerimeter=0;" edge="1" parent="1" source="4vMpr_41CA_hvpr1hlCl-55">
          <mxGeometry relative="1" as="geometry">
            <mxPoint x="92" y="152" as="sourcePoint" />
            <mxPoint x="225" y="340" as="targetPoint" />
          </mxGeometry>
        </mxCell>
        <mxCell id="4vMpr_41CA_hvpr1hlCl-58" value="&lt;font style=&quot;font-size: 5px;&quot;&gt;policy_id&lt;/font&gt;" style="ellipse;whiteSpace=wrap;html=1;align=center;" vertex="1" parent="1">
          <mxGeometry x="255" y="320" width="30" height="20" as="geometry" />
        </mxCell>
        <mxCell id="4vMpr_41CA_hvpr1hlCl-59" value="&lt;font style=&quot;font-size: 5px;&quot;&gt;claims_type&lt;/font&gt;" style="ellipse;whiteSpace=wrap;html=1;align=center;" vertex="1" parent="1">
          <mxGeometry x="295" y="310" width="30" height="20" as="geometry" />
        </mxCell>
        <mxCell id="4vMpr_41CA_hvpr1hlCl-60" value="&lt;font style=&quot;font-size: 5px;&quot;&gt;caims date&lt;/font&gt;" style="ellipse;whiteSpace=wrap;html=1;align=center;" vertex="1" parent="1">
          <mxGeometry x="330" y="350" width="30" height="20" as="geometry" />
        </mxCell>
        <mxCell id="4vMpr_41CA_hvpr1hlCl-61" value="&lt;font style=&quot;font-size: 5px;&quot;&gt;claim_amount&lt;/font&gt;" style="ellipse;whiteSpace=wrap;html=1;align=center;" vertex="1" parent="1">
          <mxGeometry x="320" y="380" width="40" height="20" as="geometry" />
        </mxCell>
        <mxCell id="4vMpr_41CA_hvpr1hlCl-62" value="&lt;span style=&quot;font-size: 5px;&quot;&gt;claim_status&lt;/span&gt;" style="ellipse;whiteSpace=wrap;html=1;align=center;" vertex="1" parent="1">
          <mxGeometry x="220" y="400" width="40" height="20" as="geometry" />
        </mxCell>
        <mxCell id="4vMpr_41CA_hvpr1hlCl-63" value="" style="endArrow=none;html=1;rounded=0;exitX=0.25;exitY=0;exitDx=0;exitDy=0;entryX=0.333;entryY=1;entryDx=0;entryDy=0;entryPerimeter=0;" edge="1" parent="1" source="4vMpr_41CA_hvpr1hlCl-55" target="4vMpr_41CA_hvpr1hlCl-58">
          <mxGeometry relative="1" as="geometry">
            <mxPoint x="265" y="370" as="sourcePoint" />
            <mxPoint x="235" y="340" as="targetPoint" />
          </mxGeometry>
        </mxCell>
        <mxCell id="4vMpr_41CA_hvpr1hlCl-64" value="" style="endArrow=none;html=1;rounded=0;exitX=0.5;exitY=0;exitDx=0;exitDy=0;entryX=0;entryY=1;entryDx=0;entryDy=0;" edge="1" parent="1" source="4vMpr_41CA_hvpr1hlCl-55" target="4vMpr_41CA_hvpr1hlCl-59">
          <mxGeometry relative="1" as="geometry">
            <mxPoint x="275" y="380" as="sourcePoint" />
            <mxPoint x="245" y="350" as="targetPoint" />
          </mxGeometry>
        </mxCell>
        <mxCell id="4vMpr_41CA_hvpr1hlCl-65" value="" style="endArrow=none;html=1;rounded=0;exitX=1;exitY=0;exitDx=0;exitDy=0;entryX=0;entryY=0.5;entryDx=0;entryDy=0;" edge="1" parent="1" source="4vMpr_41CA_hvpr1hlCl-55" target="4vMpr_41CA_hvpr1hlCl-60">
          <mxGeometry relative="1" as="geometry">
            <mxPoint x="285" y="390" as="sourcePoint" />
            <mxPoint x="255" y="360" as="targetPoint" />
          </mxGeometry>
        </mxCell>
        <mxCell id="4vMpr_41CA_hvpr1hlCl-66" value="" style="endArrow=none;html=1;rounded=0;exitX=0;exitY=0.5;exitDx=0;exitDy=0;entryX=1;entryY=0.75;entryDx=0;entryDy=0;" edge="1" parent="1" source="4vMpr_41CA_hvpr1hlCl-61" target="4vMpr_41CA_hvpr1hlCl-55">
          <mxGeometry relative="1" as="geometry">
            <mxPoint x="329.9999999999875" y="380" as="sourcePoint" />
            <mxPoint x="265" y="370" as="targetPoint" />
          </mxGeometry>
        </mxCell>
        <mxCell id="4vMpr_41CA_hvpr1hlCl-67" value="" style="endArrow=none;html=1;rounded=0;exitX=0.5;exitY=0;exitDx=0;exitDy=0;entryX=0.5;entryY=1;entryDx=0;entryDy=0;" edge="1" parent="1" source="4vMpr_41CA_hvpr1hlCl-62">
          <mxGeometry relative="1" as="geometry">
            <mxPoint x="305" y="410" as="sourcePoint" />
            <mxPoint x="275" y="380" as="targetPoint" />
          </mxGeometry>
        </mxCell>
        <mxCell id="4vMpr_41CA_hvpr1hlCl-68" value="&lt;font style=&quot;font-size: 5px;&quot;&gt;Agent&lt;/font&gt;" style="whiteSpace=wrap;html=1;align=center;" vertex="1" parent="1">
          <mxGeometry x="60" y="290" width="60" height="20" as="geometry" />
        </mxCell>
        <mxCell id="4vMpr_41CA_hvpr1hlCl-70" value="&lt;font style=&quot;font-size: 5px;&quot;&gt;First Name&lt;/font&gt;" style="ellipse;whiteSpace=wrap;html=1;align=center;" vertex="1" parent="1">
          <mxGeometry x="20" y="260" width="30" height="20" as="geometry" />
        </mxCell>
        <mxCell id="4vMpr_41CA_hvpr1hlCl-71" value="&lt;font style=&quot;font-size: 5px;&quot;&gt;Last Name&lt;/font&gt;" style="ellipse;whiteSpace=wrap;html=1;align=center;" vertex="1" parent="1">
          <mxGeometry x="50" y="240" width="30" height="20" as="geometry" />
        </mxCell>
        <mxCell id="4vMpr_41CA_hvpr1hlCl-72" value="&lt;font style=&quot;font-size: 5px;&quot;&gt;Email&lt;/font&gt;" style="ellipse;whiteSpace=wrap;html=1;align=center;" vertex="1" parent="1">
          <mxGeometry x="100" y="250" width="30" height="20" as="geometry" />
        </mxCell>
        <mxCell id="4vMpr_41CA_hvpr1hlCl-73" value="&lt;font style=&quot;font-size: 5px;&quot;&gt;Phone&amp;nbsp;&lt;/font&gt;" style="ellipse;whiteSpace=wrap;html=1;align=center;" vertex="1" parent="1">
          <mxGeometry x="130" y="270" width="30" height="20" as="geometry" />
        </mxCell>
        <mxCell id="4vMpr_41CA_hvpr1hlCl-74" value="&lt;font style=&quot;font-size: 5px;&quot;&gt;Address&lt;/font&gt;" style="ellipse;whiteSpace=wrap;html=1;align=center;" vertex="1" parent="1">
          <mxGeometry x="45" y="320" width="30" height="20" as="geometry" />
        </mxCell>
        <mxCell id="4vMpr_41CA_hvpr1hlCl-75" value="&lt;font style=&quot;font-size: 5px;&quot;&gt;House No&lt;/font&gt;" style="ellipse;whiteSpace=wrap;html=1;align=center;" vertex="1" parent="1">
          <mxGeometry y="340" width="30" height="20" as="geometry" />
        </mxCell>
        <mxCell id="4vMpr_41CA_hvpr1hlCl-76" value="&lt;font style=&quot;font-size: 5px;&quot;&gt;Street&lt;/font&gt;" style="ellipse;whiteSpace=wrap;html=1;align=center;" vertex="1" parent="1">
          <mxGeometry x="15" y="370" width="30" height="20" as="geometry" />
        </mxCell>
        <mxCell id="4vMpr_41CA_hvpr1hlCl-77" value="&lt;font style=&quot;font-size: 5px;&quot;&gt;City&lt;/font&gt;" style="ellipse;whiteSpace=wrap;html=1;align=center;" vertex="1" parent="1">
          <mxGeometry x="50" y="370" width="30" height="20" as="geometry" />
        </mxCell>
        <mxCell id="4vMpr_41CA_hvpr1hlCl-78" value="&lt;font style=&quot;font-size: 5px;&quot;&gt;Zip code&lt;/font&gt;" style="ellipse;whiteSpace=wrap;html=1;align=center;" vertex="1" parent="1">
          <mxGeometry x="75" y="350" width="30" height="20" as="geometry" />
        </mxCell>
        <mxCell id="4vMpr_41CA_hvpr1hlCl-80" value="" style="endArrow=none;html=1;rounded=0;entryX=0.75;entryY=0;entryDx=0;entryDy=0;exitX=0;exitY=0.5;exitDx=0;exitDy=0;" edge="1" parent="1" source="4vMpr_41CA_hvpr1hlCl-73" target="4vMpr_41CA_hvpr1hlCl-68">
          <mxGeometry relative="1" as="geometry">
            <mxPoint x="160" y="300" as="sourcePoint" />
            <mxPoint x="235" y="260" as="targetPoint" />
          </mxGeometry>
        </mxCell>
        <mxCell id="4vMpr_41CA_hvpr1hlCl-81" value="" style="endArrow=none;html=1;rounded=0;entryX=0.5;entryY=0;entryDx=0;entryDy=0;exitX=0.5;exitY=1;exitDx=0;exitDy=0;" edge="1" parent="1" source="4vMpr_41CA_hvpr1hlCl-72" target="4vMpr_41CA_hvpr1hlCl-68">
          <mxGeometry relative="1" as="geometry">
            <mxPoint x="148" y="271" as="sourcePoint" />
            <mxPoint x="115" y="300" as="targetPoint" />
          </mxGeometry>
        </mxCell>
        <mxCell id="4vMpr_41CA_hvpr1hlCl-82" value="" style="endArrow=none;html=1;rounded=0;entryX=0.5;entryY=0;entryDx=0;entryDy=0;exitX=0.5;exitY=1;exitDx=0;exitDy=0;" edge="1" parent="1" source="4vMpr_41CA_hvpr1hlCl-71" target="4vMpr_41CA_hvpr1hlCl-68">
          <mxGeometry relative="1" as="geometry">
            <mxPoint x="158" y="281" as="sourcePoint" />
            <mxPoint x="125" y="310" as="targetPoint" />
          </mxGeometry>
        </mxCell>
        <mxCell id="4vMpr_41CA_hvpr1hlCl-83" value="" style="endArrow=none;html=1;rounded=0;exitX=1;exitY=1;exitDx=0;exitDy=0;" edge="1" parent="1" source="4vMpr_41CA_hvpr1hlCl-70">
          <mxGeometry relative="1" as="geometry">
            <mxPoint x="168" y="291" as="sourcePoint" />
            <mxPoint x="80" y="290" as="targetPoint" />
          </mxGeometry>
        </mxCell>
        <mxCell id="4vMpr_41CA_hvpr1hlCl-84" value="" style="endArrow=none;html=1;rounded=0;exitX=1;exitY=0.5;exitDx=0;exitDy=0;entryX=0;entryY=0.5;entryDx=0;entryDy=0;" edge="1" parent="1" target="4vMpr_41CA_hvpr1hlCl-68">
          <mxGeometry relative="1" as="geometry">
            <mxPoint x="45.00000000000216" y="300" as="sourcePoint" />
            <mxPoint x="60" y="305" as="targetPoint" />
          </mxGeometry>
        </mxCell>
        <mxCell id="4vMpr_41CA_hvpr1hlCl-86" value="" style="endArrow=none;html=1;rounded=0;entryX=1;entryY=0;entryDx=0;entryDy=0;exitX=0.25;exitY=1;exitDx=0;exitDy=0;" edge="1" parent="1" source="4vMpr_41CA_hvpr1hlCl-68" target="4vMpr_41CA_hvpr1hlCl-74">
          <mxGeometry relative="1" as="geometry">
            <mxPoint x="188" y="311" as="sourcePoint" />
            <mxPoint x="155" y="340" as="targetPoint" />
          </mxGeometry>
        </mxCell>
        <mxCell id="4vMpr_41CA_hvpr1hlCl-87" value="" style="endArrow=none;html=1;rounded=0;exitX=1;exitY=1;exitDx=0;exitDy=0;" edge="1" parent="1" source="4vMpr_41CA_hvpr1hlCl-74" target="4vMpr_41CA_hvpr1hlCl-78">
          <mxGeometry relative="1" as="geometry">
            <mxPoint x="85" y="320" as="sourcePoint" />
            <mxPoint x="66" y="353" as="targetPoint" />
          </mxGeometry>
        </mxCell>
        <mxCell id="4vMpr_41CA_hvpr1hlCl-88" value="" style="endArrow=none;html=1;rounded=0;exitX=0.613;exitY=1.045;exitDx=0;exitDy=0;exitPerimeter=0;entryX=0.357;entryY=-0.001;entryDx=0;entryDy=0;entryPerimeter=0;" edge="1" parent="1" source="4vMpr_41CA_hvpr1hlCl-74" target="4vMpr_41CA_hvpr1hlCl-77">
          <mxGeometry relative="1" as="geometry">
            <mxPoint x="66" y="367" as="sourcePoint" />
            <mxPoint x="103" y="384" as="targetPoint" />
          </mxGeometry>
        </mxCell>
        <mxCell id="4vMpr_41CA_hvpr1hlCl-89" value="" style="endArrow=none;html=1;rounded=0;exitX=0;exitY=1;exitDx=0;exitDy=0;entryX=0.5;entryY=0;entryDx=0;entryDy=0;" edge="1" parent="1" source="4vMpr_41CA_hvpr1hlCl-74" target="4vMpr_41CA_hvpr1hlCl-76">
          <mxGeometry relative="1" as="geometry">
            <mxPoint x="76" y="377" as="sourcePoint" />
            <mxPoint x="113" y="394" as="targetPoint" />
          </mxGeometry>
        </mxCell>
        <mxCell id="4vMpr_41CA_hvpr1hlCl-90" value="" style="endArrow=none;html=1;rounded=0;exitX=0;exitY=0.5;exitDx=0;exitDy=0;entryX=1;entryY=0.5;entryDx=0;entryDy=0;" edge="1" parent="1" source="4vMpr_41CA_hvpr1hlCl-74" target="4vMpr_41CA_hvpr1hlCl-75">
          <mxGeometry relative="1" as="geometry">
            <mxPoint x="86" y="387" as="sourcePoint" />
            <mxPoint x="123" y="404" as="targetPoint" />
          </mxGeometry>
        </mxCell>
        <mxCell id="4vMpr_41CA_hvpr1hlCl-91" value="&lt;font style=&quot;font-size: 5px;&quot;&gt;Enrolled by&lt;/font&gt;" style="shape=rhombus;perimeter=rhombusPerimeter;whiteSpace=wrap;html=1;align=center;" vertex="1" parent="1">
          <mxGeometry x="50" y="190" width="70" height="20" as="geometry" />
        </mxCell>
        <mxCell id="4vMpr_41CA_hvpr1hlCl-92" value="" style="endArrow=none;html=1;rounded=0;exitX=0.5;exitY=0;exitDx=0;exitDy=0;entryX=1;entryY=1;entryDx=0;entryDy=0;" edge="1" parent="1" source="4vMpr_41CA_hvpr1hlCl-91" target="4vMpr_41CA_hvpr1hlCl-1">
          <mxGeometry relative="1" as="geometry">
            <mxPoint x="250" y="140" as="sourcePoint" />
            <mxPoint x="80" y="130" as="targetPoint" />
          </mxGeometry>
        </mxCell>
        <mxCell id="4vMpr_41CA_hvpr1hlCl-93" value="&lt;font style=&quot;font-size: 5px;&quot;&gt;1&lt;/font&gt;" style="resizable=0;html=1;whiteSpace=wrap;align=right;verticalAlign=bottom;" connectable="0" vertex="1" parent="4vMpr_41CA_hvpr1hlCl-92">
          <mxGeometry x="1" relative="1" as="geometry">
            <mxPoint x="-69" y="6" as="offset" />
          </mxGeometry>
        </mxCell>
        <mxCell id="4vMpr_41CA_hvpr1hlCl-94" value="" style="endArrow=none;html=1;rounded=0;exitX=0.5;exitY=0;exitDx=0;exitDy=0;" edge="1" parent="1" source="4vMpr_41CA_hvpr1hlCl-68">
          <mxGeometry relative="1" as="geometry">
            <mxPoint x="90" y="270" as="sourcePoint" />
            <mxPoint x="85" y="210" as="targetPoint" />
          </mxGeometry>
        </mxCell>
        <mxCell id="4vMpr_41CA_hvpr1hlCl-95" value="&lt;font style=&quot;font-size: 5px;&quot;&gt;1&lt;/font&gt;&lt;div&gt;&lt;br&gt;&lt;/div&gt;" style="resizable=0;html=1;whiteSpace=wrap;align=right;verticalAlign=bottom;" connectable="0" vertex="1" parent="4vMpr_41CA_hvpr1hlCl-94">
          <mxGeometry x="1" relative="1" as="geometry">
            <mxPoint x="5" y="80" as="offset" />
          </mxGeometry>
        </mxCell>
        <mxCell id="4vMpr_41CA_hvpr1hlCl-98" value="&lt;font style=&quot;font-size: 5px;&quot;&gt;claims&lt;/font&gt;" style="shape=rhombus;perimeter=rhombusPerimeter;whiteSpace=wrap;html=1;align=center;" vertex="1" parent="1">
          <mxGeometry x="180" y="250" width="120" height="20" as="geometry" />
        </mxCell>
        <mxCell id="4vMpr_41CA_hvpr1hlCl-100" value="" style="endArrow=none;html=1;rounded=0;exitX=0.5;exitY=1;exitDx=0;exitDy=0;" edge="1" parent="1" source="4vMpr_41CA_hvpr1hlCl-98">
          <mxGeometry relative="1" as="geometry">
            <mxPoint x="370" y="140" as="sourcePoint" />
            <mxPoint x="250" y="360" as="targetPoint" />
          </mxGeometry>
        </mxCell>
        <mxCell id="4vMpr_41CA_hvpr1hlCl-101" value="&lt;font style=&quot;font-size: 5px;&quot;&gt;N&lt;/font&gt;" style="resizable=0;html=1;whiteSpace=wrap;align=right;verticalAlign=bottom;" connectable="0" vertex="1" parent="4vMpr_41CA_hvpr1hlCl-100">
          <mxGeometry x="1" relative="1" as="geometry" />
        </mxCell>
        <mxCell id="4vMpr_41CA_hvpr1hlCl-104" value="" style="endArrow=none;html=1;rounded=0;exitX=0.5;exitY=0;exitDx=0;exitDy=0;entryX=1;entryY=1;entryDx=0;entryDy=0;" edge="1" parent="1" target="4vMpr_41CA_hvpr1hlCl-1">
          <mxGeometry relative="1" as="geometry">
            <mxPoint x="240" y="250" as="sourcePoint" />
            <mxPoint x="235" y="190" as="targetPoint" />
          </mxGeometry>
        </mxCell>
        <mxCell id="4vMpr_41CA_hvpr1hlCl-105" value="&lt;font style=&quot;font-size: 5px;&quot;&gt;1&lt;/font&gt;" style="resizable=0;html=1;whiteSpace=wrap;align=right;verticalAlign=bottom;" connectable="0" vertex="1" parent="4vMpr_41CA_hvpr1hlCl-104">
          <mxGeometry x="1" relative="1" as="geometry">
            <mxPoint x="2" y="11" as="offset" />
          </mxGeometry>
        </mxCell>
        <mxCell id="4vMpr_41CA_hvpr1hlCl-106" value="&lt;font style=&quot;font-size: 5px;&quot;&gt;claims compensation&lt;/font&gt;" style="shape=rhombus;perimeter=rhombusPerimeter;whiteSpace=wrap;html=1;align=center;" vertex="1" parent="1">
          <mxGeometry x="360" y="250" width="120" height="20" as="geometry" />
        </mxCell>
        <mxCell id="4vMpr_41CA_hvpr1hlCl-107" value="" style="endArrow=none;html=1;rounded=0;exitX=0.5;exitY=1;exitDx=0;exitDy=0;" edge="1" parent="1" source="4vMpr_41CA_hvpr1hlCl-106">
          <mxGeometry relative="1" as="geometry">
            <mxPoint x="370" y="140" as="sourcePoint" />
            <mxPoint x="300" y="360" as="targetPoint" />
          </mxGeometry>
        </mxCell>
        <mxCell id="4vMpr_41CA_hvpr1hlCl-108" value="&lt;font style=&quot;font-size: 5px;&quot;&gt;N&lt;/font&gt;" style="resizable=0;html=1;whiteSpace=wrap;align=right;verticalAlign=bottom;" connectable="0" vertex="1" parent="4vMpr_41CA_hvpr1hlCl-107">
          <mxGeometry x="1" relative="1" as="geometry" />
        </mxCell>
        <mxCell id="4vMpr_41CA_hvpr1hlCl-109" value="" style="endArrow=none;html=1;rounded=0;entryX=0;entryY=1;entryDx=0;entryDy=0;exitX=0.5;exitY=0;exitDx=0;exitDy=0;" edge="1" parent="1" source="4vMpr_41CA_hvpr1hlCl-106" target="4vMpr_41CA_hvpr1hlCl-19">
          <mxGeometry relative="1" as="geometry">
            <mxPoint x="250" y="140" as="sourcePoint" />
            <mxPoint x="120" y="130" as="targetPoint" />
          </mxGeometry>
        </mxCell>
        <mxCell id="4vMpr_41CA_hvpr1hlCl-110" value="&lt;font style=&quot;font-size: 5px;&quot;&gt;1&lt;/font&gt;" style="resizable=0;html=1;whiteSpace=wrap;align=right;verticalAlign=bottom;" connectable="0" vertex="1" parent="4vMpr_41CA_hvpr1hlCl-109">
          <mxGeometry x="1" relative="1" as="geometry">
            <mxPoint x="15" y="13" as="offset" />
          </mxGeometry>
        </mxCell>
        <mxCell id="4vMpr_41CA_hvpr1hlCl-111" value="&lt;font style=&quot;font-size: 5px;&quot;&gt;Policy_id&lt;/font&gt;" style="ellipse;whiteSpace=wrap;html=1;align=center;fontStyle=4;" vertex="1" parent="1">
          <mxGeometry x="460" y="40" width="40" height="20" as="geometry" />
        </mxCell>
        <mxCell id="4vMpr_41CA_hvpr1hlCl-112" value="&lt;font style=&quot;font-size: 5px;&quot;&gt;claims_id&lt;/font&gt;" style="ellipse;whiteSpace=wrap;html=1;align=center;fontStyle=4;" vertex="1" parent="1">
          <mxGeometry x="200" y="320" width="40" height="20" as="geometry" />
        </mxCell>
        <mxCell id="4vMpr_41CA_hvpr1hlCl-113" value="&lt;font style=&quot;font-size: 5px;&quot;&gt;Agent_id&lt;/font&gt;" style="ellipse;whiteSpace=wrap;html=1;align=center;fontStyle=4;" vertex="1" parent="1">
          <mxGeometry x="10" y="290" width="40" height="20" as="geometry" />
        </mxCell>
        <mxCell id="4vMpr_41CA_hvpr1hlCl-114" value="&lt;font style=&quot;font-size: 5px;&quot;&gt;customer_id&lt;/font&gt;" style="ellipse;whiteSpace=wrap;html=1;align=center;fontStyle=4;" vertex="1" parent="1">
          <mxGeometry x="-69" y="91" width="40" height="20" as="geometry" />
        </mxCell>
        <mxCell id="4vMpr_41CA_hvpr1hlCl-116" value="&lt;font style=&quot;font-size: 5px;&quot;&gt;email&lt;/font&gt;" style="ellipse;shape=doubleEllipse;margin=3;whiteSpace=wrap;html=1;align=center;" vertex="1" parent="1">
          <mxGeometry x="-14" y="31" width="35" height="20" as="geometry" />
        </mxCell>
        <mxCell id="4vMpr_41CA_hvpr1hlCl-117" value="&lt;font style=&quot;font-size: 5px;&quot;&gt;phone&lt;/font&gt;" style="ellipse;shape=doubleEllipse;margin=3;whiteSpace=wrap;html=1;align=center;" vertex="1" parent="1">
          <mxGeometry x="11" y="51" width="35" height="20" as="geometry" />
        </mxCell>
        <mxCell id="4vMpr_41CA_hvpr1hlCl-118" value="&lt;font style=&quot;font-size: 5px;&quot;&gt;Billing&lt;/font&gt;" style="whiteSpace=wrap;html=1;align=center;" vertex="1" parent="1">
          <mxGeometry x="285" y="50" width="60" height="20" as="geometry" />
        </mxCell>
        <mxCell id="4vMpr_41CA_hvpr1hlCl-119" value="&lt;span style=&quot;font-size: 5px;&quot;&gt;&lt;u&gt;invoice_id&lt;/u&gt;&lt;/span&gt;" style="ellipse;whiteSpace=wrap;html=1;align=center;" vertex="1" parent="1">
          <mxGeometry x="260" y="10" width="30" height="20" as="geometry" />
        </mxCell>
        <mxCell id="4vMpr_41CA_hvpr1hlCl-120" value="&lt;font style=&quot;font-size: 5px;&quot;&gt;invoice_date&lt;/font&gt;" style="ellipse;whiteSpace=wrap;html=1;align=center;" vertex="1" parent="1">
          <mxGeometry x="300" y="10" width="30" height="20" as="geometry" />
        </mxCell>
        <mxCell id="4vMpr_41CA_hvpr1hlCl-121" value="&lt;font style=&quot;font-size: 5px;&quot;&gt;customer_id&lt;/font&gt;" style="ellipse;whiteSpace=wrap;html=1;align=center;" vertex="1" parent="1">
          <mxGeometry x="340" y="10" width="30" height="20" as="geometry" />
        </mxCell>
        <mxCell id="4vMpr_41CA_hvpr1hlCl-122" value="&lt;font style=&quot;font-size: 5px;&quot;&gt;policy_id&lt;/font&gt;" style="ellipse;whiteSpace=wrap;html=1;align=center;" vertex="1" parent="1">
          <mxGeometry x="380" y="20" width="30" height="20" as="geometry" />
        </mxCell>
        <mxCell id="4vMpr_41CA_hvpr1hlCl-123" value="&lt;font style=&quot;font-size: 5px;&quot;&gt;invoice_amount&lt;/font&gt;" style="ellipse;whiteSpace=wrap;html=1;align=center;" vertex="1" parent="1">
          <mxGeometry x="220" y="40" width="45" height="20" as="geometry" />
        </mxCell>
        <mxCell id="4vMpr_41CA_hvpr1hlCl-124" value="" style="endArrow=none;html=1;rounded=0;entryX=1;entryY=0.5;entryDx=0;entryDy=0;exitX=0.5;exitY=1;exitDx=0;exitDy=0;" edge="1" parent="1" source="4vMpr_41CA_hvpr1hlCl-122" target="4vMpr_41CA_hvpr1hlCl-118">
          <mxGeometry relative="1" as="geometry">
            <mxPoint x="420" y="100" as="sourcePoint" />
            <mxPoint x="465" y="140" as="targetPoint" />
          </mxGeometry>
        </mxCell>
        <mxCell id="4vMpr_41CA_hvpr1hlCl-125" value="" style="endArrow=none;html=1;rounded=0;entryX=1;entryY=0;entryDx=0;entryDy=0;exitX=0.295;exitY=1.057;exitDx=0;exitDy=0;exitPerimeter=0;" edge="1" parent="1" source="4vMpr_41CA_hvpr1hlCl-121" target="4vMpr_41CA_hvpr1hlCl-118">
          <mxGeometry relative="1" as="geometry">
            <mxPoint x="430" y="110" as="sourcePoint" />
            <mxPoint x="475" y="150" as="targetPoint" />
          </mxGeometry>
        </mxCell>
        <mxCell id="4vMpr_41CA_hvpr1hlCl-126" value="" style="endArrow=none;html=1;rounded=0;exitX=0.5;exitY=1;exitDx=0;exitDy=0;" edge="1" parent="1" source="4vMpr_41CA_hvpr1hlCl-120" target="4vMpr_41CA_hvpr1hlCl-118">
          <mxGeometry relative="1" as="geometry">
            <mxPoint x="440" y="120" as="sourcePoint" />
            <mxPoint x="485" y="160" as="targetPoint" />
          </mxGeometry>
        </mxCell>
        <mxCell id="4vMpr_41CA_hvpr1hlCl-127" value="" style="endArrow=none;html=1;rounded=0;exitX=0.667;exitY=1;exitDx=0;exitDy=0;exitPerimeter=0;entryX=0.25;entryY=0;entryDx=0;entryDy=0;" edge="1" parent="1" source="4vMpr_41CA_hvpr1hlCl-119" target="4vMpr_41CA_hvpr1hlCl-118">
          <mxGeometry relative="1" as="geometry">
            <mxPoint x="325" y="40" as="sourcePoint" />
            <mxPoint x="325" y="60" as="targetPoint" />
          </mxGeometry>
        </mxCell>
        <mxCell id="4vMpr_41CA_hvpr1hlCl-128" value="" style="endArrow=none;html=1;rounded=0;exitX=1;exitY=0.5;exitDx=0;exitDy=0;entryX=0;entryY=0.5;entryDx=0;entryDy=0;" edge="1" parent="1" source="4vMpr_41CA_hvpr1hlCl-123" target="4vMpr_41CA_hvpr1hlCl-118">
          <mxGeometry relative="1" as="geometry">
            <mxPoint x="290" y="40" as="sourcePoint" />
            <mxPoint x="310" y="60" as="targetPoint" />
          </mxGeometry>
        </mxCell>
        <mxCell id="4vMpr_41CA_hvpr1hlCl-129" value="&lt;font style=&quot;font-size: 5px;&quot;&gt;cusmoter is Billed&lt;/font&gt;" style="shape=rhombus;perimeter=rhombusPerimeter;whiteSpace=wrap;html=1;align=center;" vertex="1" parent="1">
          <mxGeometry x="190" y="80" width="75" height="20" as="geometry" />
        </mxCell>
        <mxCell id="4vMpr_41CA_hvpr1hlCl-133" value="" style="endArrow=none;html=1;rounded=0;exitX=0;exitY=1;exitDx=0;exitDy=0;entryX=1;entryY=0.5;entryDx=0;entryDy=0;" edge="1" parent="1" source="4vMpr_41CA_hvpr1hlCl-129" target="4vMpr_41CA_hvpr1hlCl-1">
          <mxGeometry relative="1" as="geometry">
            <mxPoint x="250" y="220" as="sourcePoint" />
            <mxPoint x="110" y="120" as="targetPoint" />
          </mxGeometry>
        </mxCell>
        <mxCell id="4vMpr_41CA_hvpr1hlCl-134" value="&lt;font style=&quot;font-size: 5px;&quot;&gt;1&lt;/font&gt;" style="resizable=0;html=1;whiteSpace=wrap;align=right;verticalAlign=bottom;" connectable="0" vertex="1" parent="4vMpr_41CA_hvpr1hlCl-133">
          <mxGeometry x="1" relative="1" as="geometry">
            <mxPoint x="-54" y="-9" as="offset" />
          </mxGeometry>
        </mxCell>
        <mxCell id="4vMpr_41CA_hvpr1hlCl-135" value="" style="endArrow=none;html=1;rounded=0;exitX=1;exitY=0.5;exitDx=0;exitDy=0;entryX=0.25;entryY=1;entryDx=0;entryDy=0;" edge="1" parent="1" source="4vMpr_41CA_hvpr1hlCl-129" target="4vMpr_41CA_hvpr1hlCl-118">
          <mxGeometry relative="1" as="geometry">
            <mxPoint x="232.375" y="90.00000000000004" as="sourcePoint" />
            <mxPoint x="290" y="79.8" as="targetPoint" />
          </mxGeometry>
        </mxCell>
        <mxCell id="4vMpr_41CA_hvpr1hlCl-136" value="&lt;font style=&quot;font-size: 5px;&quot;&gt;N&lt;/font&gt;" style="resizable=0;html=1;whiteSpace=wrap;align=right;verticalAlign=bottom;" connectable="0" vertex="1" parent="4vMpr_41CA_hvpr1hlCl-135">
          <mxGeometry x="1" relative="1" as="geometry">
            <mxPoint y="13" as="offset" />
          </mxGeometry>
        </mxCell>
        <mxCell id="4vMpr_41CA_hvpr1hlCl-138" value="&lt;font style=&quot;font-size: 5px;&quot;&gt;Billed to&lt;/font&gt;" style="shape=rhombus;perimeter=rhombusPerimeter;whiteSpace=wrap;html=1;align=center;" vertex="1" parent="1">
          <mxGeometry x="350" y="80" width="75" height="20" as="geometry" />
        </mxCell>
        <mxCell id="4vMpr_41CA_hvpr1hlCl-139" value="" style="endArrow=none;html=1;rounded=0;exitX=0;exitY=0.5;exitDx=0;exitDy=0;entryX=0.75;entryY=1;entryDx=0;entryDy=0;" edge="1" parent="1" source="4vMpr_41CA_hvpr1hlCl-138" target="4vMpr_41CA_hvpr1hlCl-118">
          <mxGeometry relative="1" as="geometry">
            <mxPoint x="275" y="100" as="sourcePoint" />
            <mxPoint x="310" y="80" as="targetPoint" />
          </mxGeometry>
        </mxCell>
        <mxCell id="4vMpr_41CA_hvpr1hlCl-140" value="&lt;font style=&quot;font-size: 5px;&quot;&gt;N&lt;/font&gt;" style="resizable=0;html=1;whiteSpace=wrap;align=right;verticalAlign=bottom;" connectable="0" vertex="1" parent="4vMpr_41CA_hvpr1hlCl-139">
          <mxGeometry x="1" relative="1" as="geometry">
            <mxPoint y="11" as="offset" />
          </mxGeometry>
        </mxCell>
        <mxCell id="4vMpr_41CA_hvpr1hlCl-143" value="" style="endArrow=none;html=1;rounded=0;exitX=1;exitY=0.5;exitDx=0;exitDy=0;entryX=0;entryY=0;entryDx=0;entryDy=0;" edge="1" parent="1" source="4vMpr_41CA_hvpr1hlCl-138" target="4vMpr_41CA_hvpr1hlCl-19">
          <mxGeometry relative="1" as="geometry">
            <mxPoint x="219" y="105" as="sourcePoint" />
            <mxPoint x="120" y="130" as="targetPoint" />
          </mxGeometry>
        </mxCell>
        <mxCell id="4vMpr_41CA_hvpr1hlCl-144" value="&lt;font style=&quot;font-size: 5px;&quot;&gt;1&lt;/font&gt;" style="resizable=0;html=1;whiteSpace=wrap;align=right;verticalAlign=bottom;" connectable="0" vertex="1" parent="4vMpr_41CA_hvpr1hlCl-143">
          <mxGeometry x="1" relative="1" as="geometry">
            <mxPoint x="10" as="offset" />
          </mxGeometry>
        </mxCell>
        <mxCell id="4vMpr_41CA_hvpr1hlCl-145" value="&lt;font style=&quot;font-size: 5px;&quot;&gt;Vehicle&lt;/font&gt;" style="whiteSpace=wrap;html=1;align=center;" vertex="1" parent="1">
          <mxGeometry x="260" y="170" width="60" height="20" as="geometry" />
        </mxCell>
        <mxCell id="4vMpr_41CA_hvpr1hlCl-146" value="&lt;font style=&quot;font-size: 5px;&quot;&gt;Registration_no&lt;/font&gt;" style="ellipse;whiteSpace=wrap;html=1;align=center;fontStyle=4;" vertex="1" parent="1">
          <mxGeometry x="205" y="190" width="40" height="20" as="geometry" />
        </mxCell>
        <mxCell id="4vMpr_41CA_hvpr1hlCl-147" value="&lt;font style=&quot;font-size: 5px;&quot;&gt;state&lt;/font&gt;" style="ellipse;whiteSpace=wrap;html=1;align=center;" vertex="1" parent="1">
          <mxGeometry x="245" y="210" width="30" height="20" as="geometry" />
        </mxCell>
        <mxCell id="4vMpr_41CA_hvpr1hlCl-148" value="&lt;font style=&quot;font-size: 5px;&quot;&gt;VIN&lt;/font&gt;" style="ellipse;whiteSpace=wrap;html=1;align=center;" vertex="1" parent="1">
          <mxGeometry x="290" y="210" width="30" height="20" as="geometry" />
        </mxCell>
        <mxCell id="4vMpr_41CA_hvpr1hlCl-149" value="&lt;font style=&quot;font-size: 5px;&quot;&gt;model&lt;/font&gt;" style="ellipse;whiteSpace=wrap;html=1;align=center;" vertex="1" parent="1">
          <mxGeometry x="225" y="140" width="30" height="20" as="geometry" />
        </mxCell>
        <mxCell id="4vMpr_41CA_hvpr1hlCl-150" value="&lt;font style=&quot;font-size: 5px;&quot;&gt;make&lt;/font&gt;" style="ellipse;whiteSpace=wrap;html=1;align=center;" vertex="1" parent="1">
          <mxGeometry x="330" y="210" width="30" height="20" as="geometry" />
        </mxCell>
        <mxCell id="4vMpr_41CA_hvpr1hlCl-151" value="" style="endArrow=none;html=1;rounded=0;entryX=0;entryY=0.5;entryDx=0;entryDy=0;exitX=1;exitY=1;exitDx=0;exitDy=0;" edge="1" parent="1" source="4vMpr_41CA_hvpr1hlCl-149" target="4vMpr_41CA_hvpr1hlCl-145">
          <mxGeometry relative="1" as="geometry">
            <mxPoint x="102" y="150" as="sourcePoint" />
            <mxPoint x="90" y="140" as="targetPoint" />
          </mxGeometry>
        </mxCell>
        <mxCell id="4vMpr_41CA_hvpr1hlCl-152" value="" style="endArrow=none;html=1;rounded=0;entryX=0;entryY=0.5;entryDx=0;entryDy=0;exitX=1;exitY=0;exitDx=0;exitDy=0;" edge="1" parent="1" source="4vMpr_41CA_hvpr1hlCl-146" target="4vMpr_41CA_hvpr1hlCl-145">
          <mxGeometry relative="1" as="geometry">
            <mxPoint x="256" y="177" as="sourcePoint" />
            <mxPoint x="270" y="190" as="targetPoint" />
          </mxGeometry>
        </mxCell>
        <mxCell id="4vMpr_41CA_hvpr1hlCl-153" value="" style="endArrow=none;html=1;rounded=0;entryX=0;entryY=0.5;entryDx=0;entryDy=0;exitX=0.5;exitY=0;exitDx=0;exitDy=0;" edge="1" parent="1" source="4vMpr_41CA_hvpr1hlCl-147">
          <mxGeometry relative="1" as="geometry">
            <mxPoint x="249" y="203" as="sourcePoint" />
            <mxPoint x="270" y="190" as="targetPoint" />
          </mxGeometry>
        </mxCell>
        <mxCell id="4vMpr_41CA_hvpr1hlCl-154" value="" style="endArrow=none;html=1;rounded=0;entryX=0.25;entryY=1;entryDx=0;entryDy=0;" edge="1" parent="1" source="4vMpr_41CA_hvpr1hlCl-148" target="4vMpr_41CA_hvpr1hlCl-145">
          <mxGeometry relative="1" as="geometry">
            <mxPoint x="259" y="213" as="sourcePoint" />
            <mxPoint x="280" y="200" as="targetPoint" />
          </mxGeometry>
        </mxCell>
        <mxCell id="4vMpr_41CA_hvpr1hlCl-155" value="" style="endArrow=none;html=1;rounded=0;entryX=0.75;entryY=1;entryDx=0;entryDy=0;exitX=0;exitY=0;exitDx=0;exitDy=0;" edge="1" parent="1" source="4vMpr_41CA_hvpr1hlCl-150" target="4vMpr_41CA_hvpr1hlCl-145">
          <mxGeometry relative="1" as="geometry">
            <mxPoint x="269" y="223" as="sourcePoint" />
            <mxPoint x="290" y="210" as="targetPoint" />
          </mxGeometry>
        </mxCell>
        <mxCell id="4vMpr_41CA_hvpr1hlCl-156" value="&lt;font style=&quot;font-size: 5px;&quot;&gt;has&amp;nbsp;&lt;/font&gt;" style="shape=rhombus;perimeter=rhombusPerimeter;whiteSpace=wrap;html=1;align=center;" vertex="1" parent="1">
          <mxGeometry x="145" y="150" width="45" height="20" as="geometry" />
        </mxCell>
        <mxCell id="4vMpr_41CA_hvpr1hlCl-159" value="" style="endArrow=none;html=1;rounded=0;exitX=1;exitY=0.5;exitDx=0;exitDy=0;entryX=0;entryY=0.5;entryDx=0;entryDy=0;" edge="1" parent="1" source="4vMpr_41CA_hvpr1hlCl-156" target="4vMpr_41CA_hvpr1hlCl-145">
          <mxGeometry relative="1" as="geometry">
            <mxPoint x="370" y="140" as="sourcePoint" />
            <mxPoint x="450" y="150" as="targetPoint" />
          </mxGeometry>
        </mxCell>
        <mxCell id="4vMpr_41CA_hvpr1hlCl-160" value="&lt;font style=&quot;font-size: 5px;&quot;&gt;N&lt;/font&gt;" style="resizable=0;html=1;whiteSpace=wrap;align=right;verticalAlign=bottom;" connectable="0" vertex="1" parent="4vMpr_41CA_hvpr1hlCl-159">
          <mxGeometry x="1" relative="1" as="geometry" />
        </mxCell>
        <mxCell id="4vMpr_41CA_hvpr1hlCl-161" value="" style="endArrow=none;html=1;rounded=0;entryX=0.955;entryY=0.553;entryDx=0;entryDy=0;exitX=0;exitY=0.5;exitDx=0;exitDy=0;entryPerimeter=0;" edge="1" parent="1" source="4vMpr_41CA_hvpr1hlCl-156" target="4vMpr_41CA_hvpr1hlCl-1">
          <mxGeometry relative="1" as="geometry">
            <mxPoint x="250" y="140" as="sourcePoint" />
            <mxPoint x="56" y="121" as="targetPoint" />
          </mxGeometry>
        </mxCell>
        <mxCell id="4vMpr_41CA_hvpr1hlCl-162" value="&lt;font style=&quot;font-size: 5px;&quot;&gt;1&lt;/font&gt;" style="resizable=0;html=1;whiteSpace=wrap;align=right;verticalAlign=bottom;" connectable="0" vertex="1" parent="4vMpr_41CA_hvpr1hlCl-161">
          <mxGeometry x="1" relative="1" as="geometry">
            <mxPoint x="15" y="13" as="offset" />
          </mxGeometry>
        </mxCell>
        <mxCell id="4vMpr_41CA_hvpr1hlCl-163" value="&lt;font style=&quot;font-size: 5px;&quot;&gt;has&amp;nbsp;&lt;/font&gt;" style="shape=rhombus;perimeter=rhombusPerimeter;whiteSpace=wrap;html=1;align=center;" vertex="1" parent="1">
          <mxGeometry x="335" y="160" width="45" height="20" as="geometry" />
        </mxCell>
        <mxCell id="4vMpr_41CA_hvpr1hlCl-164" value="" style="endArrow=none;html=1;rounded=0;entryX=1;entryY=0;entryDx=0;entryDy=0;exitX=0;exitY=0.5;exitDx=0;exitDy=0;" edge="1" parent="1" source="4vMpr_41CA_hvpr1hlCl-163" target="4vMpr_41CA_hvpr1hlCl-145">
          <mxGeometry relative="1" as="geometry">
            <mxPoint x="250" y="140" as="sourcePoint" />
            <mxPoint x="56" y="121" as="targetPoint" />
          </mxGeometry>
        </mxCell>
        <mxCell id="4vMpr_41CA_hvpr1hlCl-165" value="&lt;font style=&quot;font-size: 5px;&quot;&gt;1&lt;/font&gt;" style="resizable=0;html=1;whiteSpace=wrap;align=right;verticalAlign=bottom;" connectable="0" vertex="1" parent="4vMpr_41CA_hvpr1hlCl-164">
          <mxGeometry x="1" relative="1" as="geometry">
            <mxPoint x="15" y="13" as="offset" />
          </mxGeometry>
        </mxCell>
        <mxCell id="4vMpr_41CA_hvpr1hlCl-166" value="" style="endArrow=none;html=1;rounded=0;entryX=1;entryY=0.5;entryDx=0;entryDy=0;" edge="1" parent="1" target="4vMpr_41CA_hvpr1hlCl-163">
          <mxGeometry relative="1" as="geometry">
            <mxPoint x="440" y="150" as="sourcePoint" />
            <mxPoint x="66" y="131" as="targetPoint" />
          </mxGeometry>
        </mxCell>
        <mxCell id="4vMpr_41CA_hvpr1hlCl-167" value="&lt;font style=&quot;font-size: 5px;&quot;&gt;1&lt;/font&gt;" style="resizable=0;html=1;whiteSpace=wrap;align=right;verticalAlign=bottom;" connectable="0" vertex="1" parent="4vMpr_41CA_hvpr1hlCl-166">
          <mxGeometry x="1" relative="1" as="geometry">
            <mxPoint x="15" y="13" as="offset" />
          </mxGeometry>
        </mxCell>
      </root>
    </mxGraphModel>
  </diagram>
</mxfile>
